<svg width="20" height="21" viewBox="0 0 20 21" fill="none" xmlns="http://www.w3.org/2000/svg">
<path d="M10.8567 2.16748C11.7946 2.16903 12.2698 2.17399 12.6805 2.18621L12.8422 2.19151C13.0291 2.19815 13.2134 2.20648 13.4357 2.2169C14.3224 2.25786 14.9273 2.39815 15.4586 2.6044C16.0078 2.8162 16.4717 3.10231 16.9349 3.56551C17.3974 4.0287 17.6836 4.49398 17.8961 5.0419C18.1016 5.57245 18.2419 6.17801 18.2836 7.06481C18.2935 7.28703 18.3015 7.47136 18.3081 7.65824L18.3133 7.81997C18.3255 8.2306 18.3311 8.70591 18.3328 9.64375L18.3335 10.2652C18.3336 10.3411 18.3336 10.4194 18.3336 10.5002L18.3335 10.7353L18.333 11.3567C18.3314 12.2946 18.3265 12.7698 18.3142 13.1805L18.3089 13.3422C18.3023 13.5291 18.294 13.7134 18.2836 13.9357C18.2426 14.8224 18.1016 15.4273 17.8961 15.9586C17.6842 16.5078 17.3974 16.9717 16.9349 17.4349C16.4717 17.8974 16.0057 18.1836 15.4586 18.3961C14.9273 18.6016 14.3224 18.7419 13.4357 18.7836C13.2134 18.7935 13.0291 18.8015 12.8422 18.8081L12.6805 18.8133C12.2698 18.8255 11.7946 18.8311 10.8567 18.8328L10.2353 18.8335C10.1594 18.8336 10.0811 18.8336 10.0002 18.8336L9.76516 18.8335L9.14375 18.833C8.20591 18.8314 7.7306 18.8265 7.31997 18.8142L7.15824 18.8089C6.97136 18.8023 6.78703 18.794 6.56481 18.7836C5.67801 18.7426 5.07384 18.6016 4.5419 18.3961C3.99328 18.1842 3.5287 17.8974 3.06551 17.4349C2.60231 16.9717 2.3169 16.5057 2.1044 15.9586C1.89815 15.4273 1.75856 14.8224 1.7169 13.9357C1.707 13.7134 1.69892 13.5291 1.69238 13.3422L1.68714 13.1805C1.67495 12.7698 1.66939 12.2946 1.66759 11.3567L1.66748 9.64375C1.66903 8.70591 1.67399 8.2306 1.68621 7.81997L1.69151 7.65824C1.69815 7.47136 1.70648 7.28703 1.7169 7.06481C1.75786 6.17731 1.89815 5.57315 2.1044 5.0419C2.3162 4.49328 2.60231 4.0287 3.06551 3.56551C3.5287 3.10231 3.99398 2.8169 4.5419 2.6044C5.07315 2.39815 5.67731 2.25856 6.56481 2.2169C6.78703 2.207 6.97136 2.19892 7.15824 2.19238L7.31997 2.18714C7.7306 2.17495 8.20591 2.16939 9.14375 2.16759L10.8567 2.16748ZM10.0002 6.33356C7.69781 6.33356 5.83356 8.19984 5.83356 10.5002C5.83356 12.8027 7.69984 14.6669 10.0002 14.6669C12.3027 14.6669 14.1669 12.8006 14.1669 10.5002C14.1669 8.19781 12.3006 6.33356 10.0002 6.33356ZM10.0002 8.00023C11.381 8.00023 12.5002 9.11908 12.5002 10.5002C12.5002 11.881 11.3813 13.0002 10.0002 13.0002C8.6195 13.0002 7.50023 11.8813 7.50023 10.5002C7.50023 9.1195 8.61908 8.00023 10.0002 8.00023ZM14.3752 5.08356C13.8008 5.08356 13.3336 5.55015 13.3336 6.12452C13.3336 6.69889 13.8002 7.1662 14.3752 7.1662C14.9496 7.1662 15.4169 6.69961 15.4169 6.12452C15.4169 5.55015 14.9488 5.08284 14.3752 5.08356Z" fill="#5A6B82"/>
</svg>
