<svg width="20" height="21" viewBox="0 0 20 21" fill="none" xmlns="http://www.w3.org/2000/svg">
<path d="M15.2801 15.7825H13.0589V12.3018C13.0589 11.4718 13.0421 10.4037 11.9014 10.4037C10.7433 10.4037 10.5664 11.3069 10.5664 12.2406V15.7825H8.34514V8.625H10.4789V9.60058H10.5076C10.8058 9.03808 11.5308 8.44437 12.6139 8.44437C14.8646 8.44437 15.2808 9.92567 15.2808 11.8538L15.2801 15.7825ZM5.83642 7.64562C5.12142 7.64562 4.54704 7.06687 4.54704 6.355C4.54704 5.64375 5.12204 5.06563 5.83642 5.06563C6.54892 5.06563 7.12642 5.64375 7.12642 6.355C7.12642 7.06687 6.54829 7.64562 5.83642 7.64562ZM6.95017 15.7825H4.72267V8.625H6.95017V15.7825ZM16.3914 3H3.60767C2.99579 3 2.50079 3.48375 2.50079 4.08063V16.9194C2.50079 17.5168 2.99579 18 3.60767 18H16.3896C17.0008 18 17.5008 17.5168 17.5008 16.9194V4.08063C17.5008 3.48375 17.0008 3 16.3896 3H16.3914Z" fill="#5A6B82"/>
</svg>
