<svg width="24" height="24" viewBox="0 0 24 24" fill="none" xmlns="http://www.w3.org/2000/svg">
<path d="M9 14.2496L15 8.24957M19.5 4.75657V21.7496L15.75 20.2496L12 21.7496L8.25 20.2496L4.5 21.7496V4.75657C4.5 3.64857 5.306 2.69957 6.407 2.57157C10.1232 2.14021 13.8768 2.14021 17.593 2.57157C18.693 2.69957 19.5 3.64857 19.5 4.75657ZM9.75 8.99957H9.758V9.00757H9.75V8.99957ZM10.125 8.99957C10.125 9.09903 10.0855 9.19441 10.0152 9.26474C9.94484 9.33506 9.84946 9.37457 9.75 9.37457C9.65054 9.37457 9.55516 9.33506 9.48483 9.26474C9.41451 9.19441 9.375 9.09903 9.375 8.99957C9.375 8.90011 9.41451 8.80473 9.48483 8.73441C9.55516 8.66408 9.65054 8.62457 9.75 8.62457C9.84946 8.62457 9.94484 8.66408 10.0152 8.73441C10.0855 8.80473 10.125 8.90011 10.125 8.99957ZM14.25 13.4996H14.258V13.5076H14.25V13.4996ZM14.625 13.4996C14.625 13.599 14.5855 13.6944 14.5152 13.7647C14.4448 13.8351 14.3495 13.8746 14.25 13.8746C14.1505 13.8746 14.0552 13.8351 13.9848 13.7647C13.9145 13.6944 13.875 13.599 13.875 13.4996C13.875 13.4001 13.9145 13.3047 13.9848 13.2344C14.0552 13.1641 14.1505 13.1246 14.25 13.1246C14.3495 13.1246 14.4448 13.1641 14.5152 13.2344C14.5855 13.3047 14.625 13.4001 14.625 13.4996Z" stroke="white" stroke-width="1.5" stroke-linecap="round" stroke-linejoin="round"/>
</svg>
