<svg width="24" height="24" viewBox="0 0 24 24" fill="none" xmlns="http://www.w3.org/2000/svg">
<g clip-path="url(#clip0_1_169)">
<path d="M5.25 7.125C5.25 5.83207 5.76361 4.59209 6.67785 3.67785C7.59209 2.76361 8.83207 2.25 10.125 2.25C11.4179 2.25 12.6579 2.76361 13.5721 3.67785C14.4864 4.59209 15 5.83207 15 7.125" stroke="white" stroke-width="1.5" stroke-linecap="round" stroke-linejoin="round"/>
<path d="M5.99964 21L3.25089 16.3125C3.00618 15.8821 2.94164 15.3723 3.07137 14.8945C3.20109 14.4167 3.51455 14.0096 3.94334 13.762C4.37213 13.5144 4.88144 13.4465 5.36012 13.5731C5.8388 13.6996 6.24799 14.0104 6.49839 14.4375L8.24964 17.25V7.125C8.24964 6.62772 8.44719 6.15081 8.79882 5.79917C9.15045 5.44754 9.62736 5.25 10.1246 5.25C10.6219 5.25 11.0988 5.44754 11.4505 5.79917C11.8021 6.15081 11.9996 6.62772 11.9996 7.125V12.375C11.9996 11.8777 12.1972 11.4008 12.5488 11.0492C12.9005 10.6975 13.3774 10.5 13.8746 10.5C14.3719 10.5 14.8488 10.6975 15.2005 11.0492C15.5521 11.4008 15.7496 11.8777 15.7496 12.375V13.875C15.7496 13.3777 15.9472 12.9008 16.2988 12.5492C16.6505 12.1975 17.1274 12 17.6246 12C18.1219 12 18.5988 12.1975 18.9505 12.5492C19.3021 12.9008 19.4996 13.3777 19.4996 13.875V17.25C19.4996 19.5 18.7496 21 18.7496 21" stroke="white" stroke-width="1.5" stroke-linecap="round" stroke-linejoin="round"/>
</g>
<defs>
<clipPath id="clip0_1_169">
<rect width="24" height="24" fill="white"/>
</clipPath>
</defs>
</svg>
